<svg width="24" height="24" viewBox="0 0 24 24" fill="none" xmlns="http://www.w3.org/2000/svg">
<path d="M2.35693 7.71429L9.33723 12.3678C10.2995 13.0093 10.7806 13.3301 11.3007 13.4547C11.7602 13.5648 12.2393 13.5648 12.6989 13.4547C13.2189 13.3301 13.7001 13.0093 14.6624 12.3678L21.6426 7.71429M7.15694 19.5H16.8426C18.5228 19.5 19.3629 19.5 20.0046 19.173C20.5691 18.8854 21.028 18.4265 21.3157 17.862C21.6426 17.2202 21.6426 16.3802 21.6426 14.7V9.3C21.6426 7.61984 21.6426 6.77976 21.3157 6.13803C21.028 5.57354 20.5691 5.1146 20.0046 4.82698C19.3629 4.5 18.5228 4.5 16.8426 4.5H7.15693C5.47678 4.5 4.6367 4.5 3.99496 4.82698C3.43048 5.1146 2.97153 5.57354 2.68391 6.13803C2.35693 6.77976 2.35693 7.61984 2.35693 9.3V14.7C2.35693 16.3802 2.35693 17.2202 2.68391 17.862C2.97153 18.4265 3.43048 18.8854 3.99496 19.173C4.6367 19.5 5.47678 19.5 7.15694 19.5Z" stroke="black" stroke-width="1.5" stroke-linecap="round" stroke-linejoin="round"/>
</svg>
